<svg width="50" height="50" viewBox="0 0 50 50" fill="none" xmlns="http://www.w3.org/2000/svg">
<path d="M14 0C13.0143 0 12.188 0.499469 11.5938 1.09375C11.572 1.11365 11.5512 1.13451 11.5312 1.15625L9.6875 3.4375C9.64247 3.47427 9.60388 3.52112 9.5625 3.5625C9.41781 3.70719 9.30736 3.88034 9.21875 4.0625C9.19503 4.10266 9.17414 4.14443 9.15625 4.1875C9.15091 4.20076 9.13006 4.20538 9.125 4.21875C9.12435 4.23958 9.12435 4.26042 9.125 4.28125C9.04565 4.51135 9 4.75937 9 5V48C9 48.5222 9.18547 49.0605 9.5625 49.4375C9.93953 49.8145 10.4778 50 11 50H39C39.5222 50 40.0605 49.8145 40.4375 49.4375C40.8145 49.0605 41 48.5222 41 48V5C41 4.52873 40.8378 4.05461 40.5312 3.6875C40.5216 3.66631 40.5111 3.64546 40.5 3.625C40.4902 3.61418 40.4788 3.60433 40.4688 3.59375C40.4408 3.5497 40.4095 3.50791 40.375 3.46875L38.4062 1.09375C38.4011 1.08697 38.3801 1.10047 38.375 1.09375C38.3708 1.08829 38.3792 1.06792 38.375 1.0625C37.8346 0.366196 37.0112 0 36.0938 0H14ZM14 2H36.0938C36.3604 2 36.7525 2.2325 36.8125 2.3125C36.8227 2.32315 36.8331 2.33356 36.8438 2.34375L37.375 3H12.5938L13 2.5H13.0312C13.4158 2.11914 13.5961 2 14 2ZM11 5H39V48H11V5ZM16 9C15.4778 9 14.9395 9.18547 14.5625 9.5625C14.1855 9.93953 14 10.4778 14 11V16C14 16.3451 14.0863 16.6921 14.25 17C14.0863 17.3079 14 17.6549 14 18V23C14 23.5222 14.1855 24.0605 14.5625 24.4375C14.9395 24.8145 15.4778 25 16 25H34C34.5222 25 35.0605 24.8145 35.4375 24.4375C35.8145 24.0605 36 23.5222 36 23V18C36 17.6549 35.9137 17.3079 35.75 17C35.9137 16.6921 36 16.3451 36 16V11C36 10.4778 35.8145 9.93953 35.4375 9.5625C35.0605 9.18547 34.5222 9 34 9H16ZM16 11H34V16H16V11ZM16 18H34V23H16V18ZM25 32C23.9 32 23 32.9 23 34C23 35.1 23.9 36 25 36C26.1 36 27 35.1 27 34C27 32.9 26.1 32 25 32ZM25 39C23.9 39 23 39.9 23 41C23 42.1 23.9 43 25 43C26.1 43 27 42.1 27 41C27 39.9 26.1 39 25 39Z" fill="white"/>
</svg>
