<svg width="2500" height="422" viewBox="0 0 2500 422" fill="none" xmlns="http://www.w3.org/2000/svg">
<path d="M209.98 421.828V339.793C296.956 339.793 364.047 254.039 330.514 163.296C324.412 146.453 314.684 131.157 302.017 118.49C289.349 105.822 274.053 96.0939 257.211 89.9922C237.662 82.6416 216.627 80.1244 195.896 82.6551C175.166 85.1858 155.354 92.6894 138.148 104.527C120.942 116.364 106.852 132.184 97.0774 150.641C87.3031 169.097 82.1342 189.642 82.011 210.526H0C0 73.7995 132.959 -34.3342 278.318 10.4263C309.556 20.2383 337.96 37.4547 361.11 60.6094C384.26 83.764 401.471 112.171 411.277 143.41C456.013 288.844 347.904 421.828 209.98 421.828Z" fill="white"/>
<path d="M211.228 339.793H129.217V259.004H211.228V339.793ZM129.217 403.191H67.0908V339.793H129.217V403.191ZM67.0908 339.793H14.9701V287.597H67.0908V339.793ZM749.251 122.278C725.649 106.11 694.586 97.3275 659.78 97.3275H584.007V339.693H659.805C694.603 339.693 724.426 330.993 749.276 313.595C762.849 303.721 773.567 290.43 780.339 275.072C787.824 258.904 791.517 239.019 791.517 217.886C791.517 196.754 787.799 176.868 780.339 161.948C772.854 143.41 762.924 130.985 749.251 122.278V122.278ZM628.743 138.445H652.345C678.443 138.445 700.798 143.435 718.189 154.613C736.826 165.791 745.634 187.048 745.634 218.011C745.634 248.974 735.654 271.454 718.189 283.879C702.046 293.859 680.913 300.047 653.568 300.047H628.743V138.445ZM844.935 93.7097C841.482 93.6174 838.046 94.234 834.841 95.5214C831.635 96.8088 828.728 98.7396 826.297 101.195C823.466 103.383 821.198 106.216 819.684 109.458C818.169 112.7 817.451 116.257 817.59 119.832C817.59 126.754 820.339 133.392 825.234 138.286C830.128 143.181 836.766 145.93 843.688 145.93C850.609 145.93 857.247 143.181 862.142 138.286C867.036 133.392 869.785 126.754 869.785 119.832C869.876 116.379 869.259 112.944 867.972 109.739C866.684 106.534 864.754 103.626 862.3 101.195C858.583 96.2047 852.32 93.7097 844.835 93.7097H844.935ZM822.38 168.286H865.868V338.57H822.555V168.286H822.38ZM1021.36 183.256C1008.88 172.078 993.912 164.618 977.869 164.618C966.918 164.377 956.042 166.478 945.969 170.781C935.896 175.084 926.858 181.489 919.461 189.568C903.941 206.007 895.47 227.867 895.858 250.471C895.858 274.099 903.343 295.207 918.313 311.374C933.283 327.542 953.094 335.002 976.722 335.002C991.926 335.241 1006.78 330.432 1018.96 321.329V325.047C1018.96 338.72 1015.24 349.997 1007.78 357.482C1000.32 364.967 990.319 368.66 976.722 368.66C956.761 368.66 944.411 361.175 929.516 340.067L899.576 368.66L900.823 369.907C907.036 378.615 916.966 387.372 929.391 396.005C941.816 404.638 957.959 408.48 976.597 408.48C1002.69 408.48 1022.58 400.995 1037.48 384.852C1052.37 368.71 1061.08 348.8 1061.08 322.702V168.286H1018.89V183.256H1021.38H1021.36ZM1010.2 283.929C1002.72 292.637 992.74 296.404 980.265 296.404C967.789 296.404 957.809 292.687 950.324 283.929C942.839 275.172 939.147 263.969 939.147 250.371C939.147 236.774 943.114 225.446 950.599 216.739C958.084 208.031 968.064 204.264 980.539 204.264C993.014 204.264 1002.99 207.981 1010.48 216.739C1017.96 225.496 1021.66 236.699 1021.66 250.297C1021.66 263.894 1017.94 275.247 1010.48 283.854L1010.2 283.929ZM1101.17 168.261H1144.66V338.545H1100.9V168.286L1101.17 168.261ZM1122.03 93.7097C1118.58 93.6241 1115.15 94.2407 1111.94 95.5219C1108.74 96.8032 1105.83 98.7224 1103.39 101.163C1100.95 103.604 1099.03 106.515 1097.75 109.72C1096.46 112.925 1095.85 116.357 1095.93 119.808C1095.93 126.729 1098.68 133.367 1103.58 138.261C1108.47 143.156 1115.11 145.905 1122.03 145.905C1128.95 145.905 1135.59 143.156 1140.48 138.261C1145.38 133.367 1148.13 126.729 1148.13 119.808C1148.21 116.355 1147.6 112.921 1146.31 109.714C1145.03 106.507 1143.11 103.595 1140.67 101.154C1138.22 98.7128 1135.31 96.7941 1132.1 95.5144C1128.89 94.2347 1125.46 93.6207 1122.01 93.7097H1122.03ZM1237.52 122.278H1195.33V168.286H1170.38V206.809H1195.33V277.667C1195.33 300.122 1200.32 316.19 1209.01 324.897C1217.69 333.605 1233.96 338.57 1254.99 338.57C1262.06 338.775 1269.13 338.357 1276.12 337.322H1278.62V298.775L1263.65 300.022C1253.67 300.022 1246.18 298.775 1243.69 295.032C1239.97 291.314 1238.7 283.854 1238.7 272.577V208.056H1278.47V169.508H1238.82L1237.52 122.278ZM1478.57 97.3275H1522.06V339.693H1478.62V97.4772L1478.57 97.3275ZM1955.76 278.939C1949.41 286.288 1942.33 292.975 1934.63 298.899C1927.86 303.002 1920.09 305.153 1912.18 305.112C1906.35 305.061 1900.59 303.81 1895.27 301.436C1889.95 299.062 1885.17 295.617 1881.24 291.314C1872.53 281.334 1868.76 270.182 1868.76 255.262C1868.76 240.341 1872.48 229.164 1881.24 219.209C1885.01 214.69 1889.78 211.105 1895.17 208.733C1900.56 206.361 1906.42 205.267 1912.3 205.536C1925.97 205.536 1940.87 214.244 1953.29 229.164L1981.86 201.719C1963.22 178.091 1939.62 166.913 1911.03 166.913C1887.43 166.913 1867.54 175.621 1850.15 193.011C1833.88 210.076 1824.92 232.83 1825.2 256.409C1825.2 281.359 1833.91 303.64 1850.15 319.807C1857.88 328.211 1867.3 334.882 1877.79 339.38C1888.29 343.878 1899.61 346.102 1911.03 345.905C1942.09 345.905 1966.94 332.233 1984.33 307.382L1955.76 278.79V278.939ZM2130.96 193.036C2124.42 184.423 2115.85 177.565 2106.01 173.076C2094.74 167.853 2082.41 165.292 2069.99 165.591C2046.38 165.591 2026.5 174.299 2011.58 191.689C1997.46 209.765 1989.99 232.154 1990.44 255.087C1990.44 281.185 1997.93 302.317 2014.05 318.485C2030.16 334.653 2050.07 343.435 2076.17 343.435C2104.74 343.435 2128.37 332.258 2147.01 308.63L2148.25 307.382L2119.69 279.937C2117.19 283.655 2113.47 286.15 2109.71 289.917C2106.18 293.634 2101.94 296.596 2097.23 298.625C2090.77 302.166 2083.46 303.89 2076.1 303.615C2065.28 303.771 2054.72 300.253 2046.16 293.635C2038.67 287.422 2034.98 278.665 2033.68 267.537H2148V251.369C2148.28 240.347 2146.59 229.363 2143.01 218.934C2141.2 209.298 2136.9 200.302 2130.54 192.836L2130.96 193.036ZM2037.77 232.906C2039.68 225.384 2043.53 218.498 2048.95 212.946C2051.89 210.019 2055.4 207.734 2059.27 206.235C2063.13 204.736 2067.27 204.056 2071.41 204.239C2081.39 204.239 2090.04 206.734 2095.01 212.946C2100 217.936 2102.49 225.421 2103.72 232.906H2037.77V232.906ZM2296.23 181.933C2283.76 170.756 2265.17 165.766 2242.81 165.766C2229.14 166.153 2215.67 169.116 2203.09 174.498C2191.92 180.711 2180.64 189.468 2174.53 201.943L2201.97 228.041C2213.15 209.403 2225.57 203.091 2242.96 203.091C2251.1 202.875 2259.04 205.525 2265.42 210.576C2268.25 212.764 2270.52 215.597 2272.03 218.839C2273.55 222.081 2274.27 225.638 2274.13 229.214V237.921C2264.12 234.546 2253.62 232.859 2243.06 232.931C2221.94 232.931 2204.54 237.921 2190.87 247.901C2177.2 257.881 2170.91 272.851 2170.91 290.167C2170.91 306.334 2175.9 318.76 2187.05 328.69C2198.2 338.62 2212 342.362 2228.04 342.362C2244.09 342.362 2259.11 336.15 2274.03 324.897V338.57H2316.27V229.189C2316.27 209.229 2310.05 193.136 2296.31 181.958L2296.23 181.933ZM2220.51 273.924C2225.5 270.207 2231.69 268.934 2240.47 268.934C2251.5 269.306 2262.4 271.402 2272.78 275.147V291.314C2262.5 300.364 2249.2 305.24 2235.5 304.987C2228.02 304.987 2221.83 303.74 2218.04 299.997C2214.25 296.255 2211.83 292.512 2211.83 287.522C2212.27 284.769 2213.26 282.135 2214.76 279.783C2216.26 277.431 2218.22 275.412 2220.53 273.849L2220.51 273.924ZM2481.36 184.428C2468.89 170.756 2452.79 164.468 2431.66 164.468C2414.26 164.468 2400.6 169.458 2390.67 179.438V169.458H2348.4V339.743H2391.89V245.331C2391.89 232.856 2394.39 221.704 2400.6 214.269C2403.64 210.639 2407.47 207.747 2411.79 205.81C2416.11 203.874 2420.82 202.944 2425.55 203.091C2429.81 202.883 2434.06 203.678 2437.96 205.411C2441.86 207.144 2445.3 209.768 2448 213.071C2453.84 221.016 2456.9 230.66 2456.71 240.516V339.942H2500V240.366C2498.75 216.747 2492.54 198.101 2481.36 184.428V184.428ZM1425.2 181.933C1412.72 170.756 1394.14 165.766 1371.78 165.766C1358.09 166.139 1344.6 169.093 1332.01 174.473C1320.83 180.686 1309.56 189.443 1303.44 201.918L1330.89 228.016C1342.07 209.378 1354.49 203.066 1371.88 203.066C1380.01 202.85 1387.96 205.5 1394.34 210.551C1397.17 212.739 1399.44 215.572 1400.95 218.814C1402.46 222.056 1403.18 225.613 1403.04 229.189V237.896C1393.04 234.521 1382.54 232.834 1371.98 232.906C1350.86 232.906 1333.46 237.896 1319.79 247.876C1306.11 257.856 1299.83 272.826 1299.83 290.142C1299.83 306.309 1304.82 318.735 1315.97 328.665C1327.12 338.595 1340.92 342.337 1356.96 342.337C1373 342.337 1388.02 336.125 1402.94 324.872V338.545H1445.18V229.189C1445.18 209.229 1437.7 193.136 1425.22 181.958L1425.2 181.933ZM1348.18 273.924C1353.17 270.207 1359.36 268.934 1368.14 268.934C1379.17 269.306 1390.07 271.402 1400.45 275.147V291.314C1390.17 300.364 1376.87 305.24 1363.17 304.987C1355.69 304.987 1349.5 303.74 1345.71 299.997C1341.92 296.255 1339.5 292.512 1339.5 287.522C1341.35 282.377 1344.33 277.708 1348.2 273.849L1348.18 273.924ZM1677.54 343.46C1652.96 343.47 1628.92 336.188 1608.47 322.536C1588.03 308.883 1572.09 289.474 1562.67 266.761C1553.25 244.049 1550.79 219.055 1555.58 194.939C1560.37 170.824 1572.2 148.671 1589.58 131.282C1606.96 113.893 1629.11 102.05 1653.23 97.2495C1677.34 92.4492 1702.34 94.9079 1725.05 104.315C1747.77 113.721 1767.18 129.653 1780.84 150.095C1794.51 170.538 1801.8 194.572 1801.8 219.159C1801.68 252.081 1788.55 283.621 1765.28 306.905C1742 330.189 1710.47 343.329 1677.54 343.46V343.46ZM1677.54 137.148C1661.56 137.123 1645.93 141.839 1632.63 150.699C1619.33 159.559 1608.96 172.165 1602.82 186.922C1596.69 201.679 1595.07 217.924 1598.17 233.602C1601.26 249.281 1608.94 263.687 1620.23 275C1631.52 286.313 1645.91 294.024 1661.58 297.157C1677.25 300.29 1693.5 298.705 1708.27 292.601C1723.04 286.498 1735.67 276.151 1744.56 262.869C1753.45 249.587 1758.2 233.968 1758.21 217.986C1758.23 207.373 1756.16 196.859 1752.11 187.048C1748.06 177.238 1742.11 168.324 1734.61 160.818C1727.1 153.311 1718.19 147.361 1708.38 143.308C1698.57 139.254 1688.06 137.178 1677.45 137.198" fill="white"/>
</svg>
