<?xml version="1.0" encoding="iso-8859-1"?>
<!-- Generator: Adobe Illustrator 19.0.0, SVG Export Plug-In . SVG Version: 6.00 Build 0)  -->
<svg version="1.1" id="Capa_1" xmlns="http://www.w3.org/2000/svg" xmlns:xlink="http://www.w3.org/1999/xlink" x="0px" y="0px"
	 viewBox="0 0 512.001 512.001" style="enable-background:new 0 0 512.001 512.001;" xml:space="preserve">
<g>
	<g>
		<g>
			<path d="M305.271,182.764c-7.789,0-15.578,2.797-15.578,9.387v67.9l-32.352-61.709c-7.59-14.579-11.783-15.578-22.967-15.578
				c-7.789,0-15.577,2.996-15.577,9.586v126.813c0,6.391,7.788,9.586,15.577,9.586s15.577-3.195,15.577-9.586v-67.9l37.944,69.099
				c3.795,6.99,10.186,8.388,17.375,8.388c7.788,0,15.576-3.195,15.576-9.586V192.15
				C320.846,185.561,313.058,182.764,305.271,182.764z"/>
			<path d="M195.834,209.924c5.991,0,9.387-6.39,9.387-13.779c0-6.391-2.797-13.381-9.387-13.381h-71.096
				c-6.79,0-13.58,3.195-13.58,9.586v126.814c0,6.391,6.79,9.586,13.58,9.586h71.096c6.59,0,9.387-6.99,9.387-13.381
				c0-7.388-3.396-13.779-9.387-13.779h-53.521v-33.95h29.956c6.591,0,9.386-6.39,9.386-11.782c0-6.391-3.395-12.183-9.386-12.183
				h-29.956v-33.751H195.834z"/>
			<path d="M438.142,256l71.924-151.419c2.943-6.196,2.506-13.469-1.159-19.267C505.241,79.516,498.859,76,492,76H20
				C8.954,76,0,84.954,0,96v320c0,11.046,8.954,20,20,20h472c6.859,0,13.241-3.516,16.906-9.314
				c3.665-5.798,4.103-13.07,1.159-19.267L438.142,256z M40,396V116h420.358l-62.424,131.419c-2.579,5.43-2.579,11.732,0,17.162
				L460.358,396H40z"/>
		</g>
	</g>
</g>
<g>
</g>
<g>
</g>
<g>
</g>
<g>
</g>
<g>
</g>
<g>
</g>
<g>
</g>
<g>
</g>
<g>
</g>
<g>
</g>
<g>
</g>
<g>
</g>
<g>
</g>
<g>
</g>
<g>
</g>
</svg>
