<svg width="159" height="22" viewBox="0 0 159 22" fill="none" xmlns="http://www.w3.org/2000/svg">
<path d="M39.7354 10.466C39.7354 11.51 40.0534 12.404 40.6894 13.148C41.3614 13.94 42.2134 14.336 43.2454 14.336C44.6614 14.336 45.6994 13.604 46.3594 12.14H49.8154C49.3594 13.652 48.5674 14.87 47.4394 15.794C46.2634 16.766 44.9074 17.252 43.3714 17.252C41.4394 17.252 39.7954 16.61 38.4394 15.326C37.0954 14.03 36.4234 12.416 36.4234 10.484C36.4234 8.6 37.0834 7.016 38.4034 5.732C39.7234 4.436 41.3254 3.788 43.2094 3.788C44.8294 3.788 46.2334 4.256 47.4214 5.192C48.6094 6.128 49.4014 7.382 49.7974 8.954H46.3414C45.9574 8.09 45.4834 7.502 44.9194 7.19C44.3674 6.866 43.8034 6.704 43.2274 6.704C42.1834 6.704 41.3374 7.07 40.6894 7.802C40.0534 8.522 39.7354 9.41 39.7354 10.466ZM54.3617 17H51.3377V7.604H54.1997V8.666C54.6077 7.754 55.3697 7.298 56.4857 7.298L56.4317 10.106C55.0517 10.106 54.3617 10.646 54.3617 11.726V17ZM63.882 7.604H66.852L61.848 20.996H58.878L60.66 16.532L57.168 7.604H60.174L62.082 13.094L63.882 7.604ZM70.9207 16.136V20.996H67.8967V7.604H70.7587V8.72C71.4427 7.772 72.4087 7.298 73.6567 7.298C75.0367 7.298 76.1347 7.808 76.9507 8.828C77.7187 9.788 78.1027 10.97 78.1027 12.374C78.1027 13.67 77.6947 14.804 76.8787 15.776C76.0267 16.796 74.9647 17.306 73.6927 17.306C72.5167 17.306 71.5927 16.916 70.9207 16.136ZM70.8487 12.302C70.8487 13.01 71.0467 13.586 71.4427 14.03C71.8387 14.474 72.3907 14.696 73.0987 14.696C73.7227 14.696 74.2447 14.456 74.6647 13.976C75.0847 13.496 75.2947 12.938 75.2947 12.302C75.2947 11.666 75.0847 11.114 74.6647 10.646C74.2447 10.166 73.7227 9.926 73.0987 9.926C72.4147 9.926 71.8687 10.154 71.4607 10.61C71.0527 11.054 70.8487 11.618 70.8487 12.302ZM83.1656 17H80.1596V9.746H78.8816V7.604H80.1596V4.472H83.1656V7.604H84.4256V9.746H83.1656V17ZM95.3526 12.302C95.3526 13.742 94.8606 14.93 93.8766 15.866C92.9046 16.802 91.6986 17.27 90.2586 17.27C88.8186 17.27 87.6126 16.802 86.6406 15.866C85.6806 14.918 85.2006 13.73 85.2006 12.302C85.2006 10.862 85.6806 9.674 86.6406 8.738C87.6126 7.802 88.8186 7.334 90.2586 7.334C91.7106 7.334 92.9226 7.802 93.8946 8.738C94.8666 9.674 95.3526 10.862 95.3526 12.302ZM92.5266 12.302C92.5266 11.654 92.3106 11.102 91.8786 10.646C91.4466 10.178 90.9066 9.944 90.2586 9.944C89.6226 9.944 89.0886 10.178 88.6566 10.646C88.2366 11.102 88.0266 11.654 88.0266 12.302C88.0266 12.938 88.2366 13.49 88.6566 13.958C89.0886 14.414 89.6226 14.642 90.2586 14.642C90.8946 14.642 91.4286 14.414 91.8606 13.958C92.3046 13.49 92.5266 12.938 92.5266 12.302ZM105.541 13.256C105.541 14.588 105.103 15.602 104.227 16.298C103.435 16.934 102.355 17.252 100.987 17.252C99.4986 17.252 98.3526 16.868 97.5486 16.1C96.7446 15.32 96.3426 14.192 96.3426 12.716H99.6366C99.6366 13.184 99.7386 13.58 99.9426 13.904C100.183 14.288 100.519 14.48 100.951 14.48C101.311 14.48 101.611 14.348 101.851 14.084C102.091 13.82 102.211 13.508 102.211 13.148C102.211 12.752 101.983 12.41 101.527 12.122C101.287 11.966 100.879 11.786 100.303 11.582C97.7826 10.67 96.5226 9.338 96.5226 7.586C96.5226 6.434 97.0086 5.498 97.9806 4.778C98.8686 4.118 99.9066 3.788 101.095 3.788C102.355 3.788 103.381 4.148 104.173 4.868C104.965 5.588 105.379 6.572 105.415 7.82H102.139C102.031 6.98 101.647 6.56 100.987 6.56C100.663 6.56 100.387 6.65 100.159 6.83C99.9306 7.01 99.8166 7.262 99.8166 7.586C99.8166 8.102 100.309 8.588 101.293 9.044C102.853 9.764 103.777 10.226 104.065 10.43C105.049 11.15 105.541 12.092 105.541 13.256ZM116.01 14.066C115.638 15.014 115.032 15.794 114.192 16.406C113.352 17.006 112.428 17.306 111.42 17.306C110.052 17.306 108.876 16.814 107.892 15.83C106.92 14.846 106.434 13.67 106.434 12.302C106.434 10.946 106.914 9.776 107.874 8.792C108.846 7.796 110.004 7.298 111.348 7.298C112.404 7.298 113.34 7.574 114.156 8.126C114.972 8.666 115.572 9.422 115.956 10.394C116.208 11.03 116.334 11.618 116.334 12.158C116.334 12.182 116.31 12.512 116.262 13.148H109.206C109.518 14.336 110.262 14.93 111.438 14.93C112.146 14.93 112.71 14.642 113.13 14.066H116.01ZM109.26 11.258H113.508C113.208 10.19 112.5 9.656 111.384 9.656C110.28 9.656 109.572 10.19 109.26 11.258ZM120.895 17H117.871V7.604H120.733V8.666C121.141 7.754 121.903 7.298 123.019 7.298L122.965 10.106C121.585 10.106 120.895 10.646 120.895 11.726V17ZM133.07 7.604L129.704 17H127.004L123.638 7.604H126.554L128.354 13.526L130.172 7.604H133.07ZM143.449 14.066C143.077 15.014 142.471 15.794 141.631 16.406C140.791 17.006 139.867 17.306 138.859 17.306C137.491 17.306 136.315 16.814 135.331 15.83C134.359 14.846 133.873 13.67 133.873 12.302C133.873 10.946 134.353 9.776 135.313 8.792C136.285 7.796 137.443 7.298 138.787 7.298C139.843 7.298 140.779 7.574 141.595 8.126C142.411 8.666 143.011 9.422 143.395 10.394C143.647 11.03 143.773 11.618 143.773 12.158C143.773 12.182 143.749 12.512 143.701 13.148H136.645C136.957 14.336 137.701 14.93 138.877 14.93C139.585 14.93 140.149 14.642 140.569 14.066H143.449ZM136.699 11.258H140.947C140.647 10.19 139.939 9.656 138.823 9.656C137.719 9.656 137.011 10.19 136.699 11.258ZM148.334 17H145.31V7.604H148.172V8.666C148.58 7.754 149.342 7.298 150.458 7.298L150.404 10.106C149.024 10.106 148.334 10.646 148.334 11.726V17ZM158.519 14.192C158.519 15.176 158.105 15.956 157.277 16.532C156.545 17.048 155.669 17.306 154.649 17.306C153.629 17.306 152.783 17.042 152.111 16.514C151.403 15.962 150.983 15.188 150.851 14.192H153.659C153.743 14.78 154.109 15.074 154.757 15.074C154.997 15.074 155.213 15.008 155.405 14.876C155.609 14.732 155.711 14.546 155.711 14.318C155.711 13.934 155.303 13.592 154.487 13.292C153.191 12.824 152.429 12.524 152.201 12.392C151.385 11.9 150.977 11.234 150.977 10.394C150.977 9.458 151.355 8.696 152.111 8.108C152.807 7.568 153.641 7.298 154.613 7.298C155.621 7.298 156.437 7.538 157.061 8.018C157.721 8.534 158.111 9.278 158.231 10.25H155.459C155.459 9.77 155.165 9.53 154.577 9.53C154.061 9.53 153.803 9.74 153.803 10.16C153.803 10.532 154.211 10.844 155.027 11.096C156.227 11.468 156.983 11.75 157.295 11.942C158.111 12.446 158.519 13.196 158.519 14.192Z" fill="#4F4F4F"/>
<path fill-rule="evenodd" clip-rule="evenodd" d="M12.2248 2.06756C12.1139 2.11165 12.0055 2.15837 11.8995 2.20742C10.4266 2.88932 9.43286 4.0207 8.98105 4.77062L5.52663 17.7438C6.10609 17.7657 6.87083 17.7806 7.75125 17.79C7.84873 17.791 7.94764 17.792 8.04786 17.7929L8.03819 17.7903L12.2248 2.06756ZM9.22435 17.8004C13.7615 17.8183 19.9846 17.7321 21.0404 17.6722C21.8905 17.6722 25.8375 16.7958 25.8375 12.9276C25.8375 9.34943 22.8014 8.09224 21.0404 8.09224C21.0404 5.91635 19.4616 1.86677 14.5431 1.625C14.183 1.625 13.8381 1.65493 13.5089 1.70954L9.22435 17.8004ZM3.36787 8.29335C2.41193 8.53069 0 10.0936 0 12.9276C0.0670919 14.3567 0.567098 15.408 1.27462 16.1546L3.36787 8.29335ZM2.24118 16.9286C2.91304 17.3343 3.65804 17.5644 4.36104 17.6565L7.75545 4.90866C7.01804 4.9716 6.13286 5.17121 5.43468 5.64436C5.36134 5.69406 5.29004 5.7459 5.22075 5.79954L2.25627 16.9327L2.24118 16.9286Z" fill="#4F4F4F"/>
</svg>
