<svg width="159" height="22" viewBox="0 0 159 22" fill="none" xmlns="http://www.w3.org/2000/svg">
<path d="M39.7354 10.4661C39.7354 11.5101 40.0534 12.4041 40.6894 13.1481C41.3614 13.9401 42.2134 14.3361 43.2454 14.3361C44.6614 14.3361 45.6994 13.6041 46.3594 12.1401H49.8154C49.3594 13.6521 48.5674 14.8701 47.4394 15.7941C46.2634 16.7661 44.9074 17.2521 43.3714 17.2521C41.4394 17.2521 39.7954 16.6101 38.4394 15.3261C37.0954 14.0301 36.4234 12.4161 36.4234 10.4841C36.4234 8.60009 37.0834 7.01609 38.4034 5.73209C39.7234 4.43609 41.3254 3.78809 43.2094 3.78809C44.8294 3.78809 46.2334 4.25609 47.4214 5.19209C48.6094 6.12809 49.4014 7.38209 49.7974 8.95409H46.3414C45.9574 8.09009 45.4834 7.50209 44.9194 7.19009C44.3674 6.86609 43.8034 6.70409 43.2274 6.70409C42.1834 6.70409 41.3374 7.07009 40.6894 7.80209C40.0534 8.52209 39.7354 9.41009 39.7354 10.4661ZM54.3617 17.0001H51.3377V7.60409H54.1997V8.66609C54.6077 7.75409 55.3697 7.29809 56.4857 7.29809L56.4317 10.1061C55.0517 10.1061 54.3617 10.6461 54.3617 11.7261V17.0001ZM63.882 7.60409H66.852L61.848 20.9961H58.878L60.66 16.5321L57.168 7.60409H60.174L62.082 13.0941L63.882 7.60409ZM70.9207 16.1361V20.9961H67.8967V7.60409H70.7587V8.72009C71.4427 7.77209 72.4087 7.29809 73.6567 7.29809C75.0367 7.29809 76.1347 7.80809 76.9507 8.82809C77.7187 9.78809 78.1027 10.9701 78.1027 12.3741C78.1027 13.6701 77.6947 14.8041 76.8787 15.7761C76.0267 16.7961 74.9647 17.3061 73.6927 17.3061C72.5167 17.3061 71.5927 16.9161 70.9207 16.1361ZM70.8487 12.3021C70.8487 13.0101 71.0467 13.5861 71.4427 14.0301C71.8387 14.4741 72.3907 14.6961 73.0987 14.6961C73.7227 14.6961 74.2447 14.4561 74.6647 13.9761C75.0847 13.4961 75.2947 12.9381 75.2947 12.3021C75.2947 11.6661 75.0847 11.1141 74.6647 10.6461C74.2447 10.1661 73.7227 9.92609 73.0987 9.92609C72.4147 9.92609 71.8687 10.1541 71.4607 10.6101C71.0527 11.0541 70.8487 11.6181 70.8487 12.3021ZM83.1656 17.0001H80.1596V9.74609H78.8816V7.60409H80.1596V4.47209H83.1656V7.60409H84.4256V9.74609H83.1656V17.0001ZM95.3526 12.3021C95.3526 13.7421 94.8606 14.9301 93.8766 15.8661C92.9046 16.8021 91.6986 17.2701 90.2586 17.2701C88.8186 17.2701 87.6126 16.8021 86.6406 15.8661C85.6806 14.9181 85.2006 13.7301 85.2006 12.3021C85.2006 10.8621 85.6806 9.67409 86.6406 8.73809C87.6126 7.80209 88.8186 7.33409 90.2586 7.33409C91.7106 7.33409 92.9226 7.80209 93.8946 8.73809C94.8666 9.67409 95.3526 10.8621 95.3526 12.3021ZM92.5266 12.3021C92.5266 11.6541 92.3106 11.1021 91.8786 10.6461C91.4466 10.1781 90.9066 9.94409 90.2586 9.94409C89.6226 9.94409 89.0886 10.1781 88.6566 10.6461C88.2366 11.1021 88.0266 11.6541 88.0266 12.3021C88.0266 12.9381 88.2366 13.4901 88.6566 13.9581C89.0886 14.4141 89.6226 14.6421 90.2586 14.6421C90.8946 14.6421 91.4286 14.4141 91.8606 13.9581C92.3046 13.4901 92.5266 12.9381 92.5266 12.3021ZM105.541 13.2561C105.541 14.5881 105.103 15.6021 104.227 16.2981C103.435 16.9341 102.355 17.2521 100.987 17.2521C99.4986 17.2521 98.3526 16.8681 97.5486 16.1001C96.7446 15.3201 96.3426 14.1921 96.3426 12.7161H99.6366C99.6366 13.1841 99.7386 13.5801 99.9426 13.9041C100.183 14.2881 100.519 14.4801 100.951 14.4801C101.311 14.4801 101.611 14.3481 101.851 14.0841C102.091 13.8201 102.211 13.5081 102.211 13.1481C102.211 12.7521 101.983 12.4101 101.527 12.1221C101.287 11.9661 100.879 11.7861 100.303 11.5821C97.7826 10.6701 96.5226 9.33809 96.5226 7.58609C96.5226 6.43409 97.0086 5.49809 97.9806 4.77809C98.8686 4.11809 99.9066 3.78809 101.095 3.78809C102.355 3.78809 103.381 4.14809 104.173 4.86809C104.965 5.58809 105.379 6.57209 105.415 7.82009H102.139C102.031 6.98009 101.647 6.56009 100.987 6.56009C100.663 6.56009 100.387 6.65009 100.159 6.83009C99.9306 7.01009 99.8166 7.26209 99.8166 7.58609C99.8166 8.10209 100.309 8.58809 101.293 9.04409C102.853 9.76409 103.777 10.2261 104.065 10.4301C105.049 11.1501 105.541 12.0921 105.541 13.2561ZM116.01 14.0661C115.638 15.0141 115.032 15.7941 114.192 16.4061C113.352 17.0061 112.428 17.3061 111.42 17.3061C110.052 17.3061 108.876 16.8141 107.892 15.8301C106.92 14.8461 106.434 13.6701 106.434 12.3021C106.434 10.9461 106.914 9.77609 107.874 8.79209C108.846 7.79609 110.004 7.29809 111.348 7.29809C112.404 7.29809 113.34 7.57409 114.156 8.12609C114.972 8.66609 115.572 9.42209 115.956 10.3941C116.208 11.0301 116.334 11.6181 116.334 12.1581C116.334 12.1821 116.31 12.5121 116.262 13.1481H109.206C109.518 14.3361 110.262 14.9301 111.438 14.9301C112.146 14.9301 112.71 14.6421 113.13 14.0661H116.01ZM109.26 11.2581H113.508C113.208 10.1901 112.5 9.65609 111.384 9.65609C110.28 9.65609 109.572 10.1901 109.26 11.2581ZM120.895 17.0001H117.871V7.60409H120.733V8.66609C121.141 7.75409 121.903 7.29809 123.019 7.29809L122.965 10.1061C121.585 10.1061 120.895 10.6461 120.895 11.7261V17.0001ZM133.07 7.60409L129.704 17.0001H127.004L123.638 7.60409H126.554L128.354 13.5261L130.172 7.60409H133.07ZM143.449 14.0661C143.077 15.0141 142.471 15.7941 141.631 16.4061C140.791 17.0061 139.867 17.3061 138.859 17.3061C137.491 17.3061 136.315 16.8141 135.331 15.8301C134.359 14.8461 133.873 13.6701 133.873 12.3021C133.873 10.9461 134.353 9.77609 135.313 8.79209C136.285 7.79609 137.443 7.29809 138.787 7.29809C139.843 7.29809 140.779 7.57409 141.595 8.12609C142.411 8.66609 143.011 9.42209 143.395 10.3941C143.647 11.0301 143.773 11.6181 143.773 12.1581C143.773 12.1821 143.749 12.5121 143.701 13.1481H136.645C136.957 14.3361 137.701 14.9301 138.877 14.9301C139.585 14.9301 140.149 14.6421 140.569 14.0661H143.449ZM136.699 11.2581H140.947C140.647 10.1901 139.939 9.65609 138.823 9.65609C137.719 9.65609 137.011 10.1901 136.699 11.2581ZM148.334 17.0001H145.31V7.60409H148.172V8.66609C148.58 7.75409 149.342 7.29809 150.458 7.29809L150.404 10.1061C149.024 10.1061 148.334 10.6461 148.334 11.7261V17.0001ZM158.519 14.1921C158.519 15.1761 158.105 15.9561 157.277 16.5321C156.545 17.0481 155.669 17.3061 154.649 17.3061C153.629 17.3061 152.783 17.0421 152.111 16.5141C151.403 15.9621 150.983 15.1881 150.851 14.1921H153.659C153.743 14.7801 154.109 15.0741 154.757 15.0741C154.997 15.0741 155.213 15.0081 155.405 14.8761C155.609 14.7321 155.711 14.5461 155.711 14.3181C155.711 13.9341 155.303 13.5921 154.487 13.2921C153.191 12.8241 152.429 12.5241 152.201 12.3921C151.385 11.9001 150.977 11.2341 150.977 10.3941C150.977 9.45809 151.355 8.69609 152.111 8.10809C152.807 7.56809 153.641 7.29809 154.613 7.29809C155.621 7.29809 156.437 7.53809 157.061 8.01809C157.721 8.53409 158.111 9.27809 158.231 10.2501H155.459C155.459 9.77009 155.165 9.53009 154.577 9.53009C154.061 9.53009 153.803 9.74009 153.803 10.1601C153.803 10.5321 154.211 10.8441 155.027 11.0961C156.227 11.4681 156.983 11.7501 157.295 11.9421C158.111 12.4461 158.519 13.1961 158.519 14.1921Z" fill="white"/>
<path fill-rule="evenodd" clip-rule="evenodd" d="M12.2248 2.06756C12.1139 2.11165 12.0055 2.15837 11.8995 2.20742C10.4266 2.88932 9.43286 4.0207 8.98105 4.77062L5.52663 17.7438C6.10609 17.7657 6.87083 17.7806 7.75125 17.79C7.84873 17.791 7.94764 17.792 8.04786 17.7929L8.03819 17.7903L12.2248 2.06756ZM9.22435 17.8004C13.7615 17.8183 19.9846 17.7321 21.0404 17.6722C21.8905 17.6722 25.8375 16.7958 25.8375 12.9276C25.8375 9.34943 22.8014 8.09224 21.0404 8.09224C21.0404 5.91635 19.4616 1.86677 14.5431 1.625C14.183 1.625 13.8381 1.65493 13.5089 1.70954L9.22435 17.8004ZM3.36787 8.29335C2.41193 8.53069 0 10.0936 0 12.9276C0.0670919 14.3567 0.567098 15.408 1.27462 16.1546L3.36787 8.29335ZM2.24118 16.9286C2.91304 17.3343 3.65804 17.5644 4.36104 17.6565L7.75545 4.90866C7.01804 4.9716 6.13286 5.17121 5.43468 5.64436C5.36134 5.69406 5.29004 5.7459 5.22075 5.79954L2.25627 16.9327L2.24118 16.9286Z" fill="white"/>
</svg>
