<?xml version="1.0" encoding="UTF-8"?>
<svg width="284px" height="56px" viewBox="0 0 284 56" version="1.1" xmlns="http://www.w3.org/2000/svg" xmlns:xlink="http://www.w3.org/1999/xlink">
    <!-- Generator: Sketch 46.2 (44496) - http://www.bohemiancoding.com/sketch -->
    <title>logo</title>
    <desc>Created with Sketch.</desc>
    <defs></defs>
    <g id="Page-1" stroke="none" stroke-width="1" fill="none" fill-rule="evenodd">
        <g id="logo">
            <path d="M237.281,26.219 L211.855,26.211 L211.855,20.73 L232.242,20.727 C233.309,20.727 234.188,19.852 234.191,18.785 L234.203,15.074 C234.207,14.008 233.336,13.129 232.266,13.129 L211.855,13.121 L211.855,7.637 L237.281,7.633 C238.352,7.633 239.223,6.758 239.223,5.691 L239.223,1.953 C239.223,0.887 238.352,0.012 237.281,0.012 L206.07,0.012 C205,0.012 204.129,0.887 204.129,1.953 L204.129,31.887 C204.129,32.957 205,33.828 206.07,33.828 L237.277,33.828 C238.348,33.828 239.219,32.957 239.223,31.887 L239.223,28.16 C239.223,27.094 238.352,26.219 237.281,26.219" id="Fill-1" fill="#D61541"></path>
            <path d="M35.004,0.035 L31.133,0.035 C30.066,0.035 29.191,0.91 29.191,1.977 L29.188,13.074 L7.824,13.074 L7.816,1.941 C7.816,0.875 6.941,0 5.875,0 L1.953,0 C0.883,0 0.008,0.875 0.008,1.941 L0.008,31.941 C0.008,33.012 0.883,33.887 1.953,33.887 L5.875,33.887 C6.941,33.887 7.816,33.012 7.816,31.941 L7.82,20.68 L29.188,20.68 L29.195,31.941 C29.195,33.012 30.066,33.883 31.137,33.879 L35.004,33.875 C36.078,33.871 36.949,32.996 36.949,31.926 L36.949,1.977 C36.949,0.91 36.078,0.035 35.004,0.035" id="Fill-2" fill="#D61541"></path>
            <path d="M75.227,26.219 L49.797,26.219 L49.797,20.738 L70.184,20.727 C71.25,20.727 72.129,19.852 72.133,18.785 L72.145,15.074 C72.148,14.008 71.277,13.129 70.207,13.129 L49.797,13.125 L49.797,7.637 L75.223,7.633 C76.293,7.633 77.164,6.758 77.164,5.691 L77.164,1.953 C77.164,0.887 76.293,0.012 75.223,0.012 L44.012,0.012 C42.941,0.012 42.066,0.887 42.066,1.953 L42.066,31.887 C42.066,32.957 42.941,33.828 44.012,33.828 L75.219,33.828 C76.289,33.828 77.16,32.957 77.164,31.887 L77.164,28.16 C77.168,27.094 76.293,26.219 75.227,26.219" id="Fill-3" fill="#D61541"></path>
            <path d="M115.578,0.051 L83.25,0.051 C82.18,0.051 81.309,0.926 81.309,1.992 L81.309,5.727 C81.309,6.793 82.18,7.668 83.25,7.668 L95.555,7.668 L95.555,31.918 C95.555,32.988 96.426,33.863 97.492,33.863 L101.656,33.863 C102.727,33.863 103.598,32.988 103.598,31.918 L103.605,7.668 L115.578,7.668 C116.648,7.668 117.52,6.793 117.52,5.727 L117.52,1.992 C117.52,0.926 116.648,0.051 115.578,0.051" id="Fill-4" fill="#D61541"></path>
            <path d="M269.746,14.563 L251.41,14.57 L251.41,7.676 L269.746,7.664 C271.313,7.664 272.594,8.945 272.594,10.516 L272.594,10.969 C272.598,11.031 272.613,11.086 272.613,11.152 C272.613,11.207 272.598,11.262 272.594,11.316 L272.594,11.711 C272.594,13.277 271.313,14.563 269.746,14.563 Z M272.219,21.531 C274.34,21.027 276.398,20.219 277.793,18.535 C277.813,18.516 277.828,18.504 277.848,18.484 C279.543,16.43 280.406,13.977 280.406,11.188 C280.406,8.855 279.824,6.777 278.672,5.012 C276.73,1.988 274.008,0.363 270.586,0.184 C270.566,0.184 268.914,0.141 268.914,0.141 C267.848,0.109 266.102,0.082 265.031,0.078 L245.777,0.043 C244.703,0.039 243.836,0.914 243.836,1.98 L243.836,31.934 C243.836,33.004 244.703,33.879 245.777,33.879 L249.449,33.879 C250.52,33.879 251.395,33.004 251.395,31.934 L251.383,22.172 L260.426,22.156 C261.496,22.156 262.977,22.781 263.719,23.551 L272.594,32.465 C273.336,33.23 274.566,33.859 275.633,33.859 L282.445,33.859 C283.512,33.859 283.773,33.238 283.023,32.48 C283.023,32.48 272.477,21.797 272.219,21.535 L272.219,21.531 Z" id="Fill-5" fill="#D61541"></path>
            <path d="M156.047,26.105 C156.047,26.105 134.773,26.102 134.395,26.102 L155.727,7.359 C156.527,6.656 157.176,5.207 157.172,4.137 L157.168,1.977 C157.164,0.91 156.285,0.035 155.223,0.035 L123.617,0.035 C122.551,0.035 121.676,0.91 121.676,1.977 L121.676,5.734 C121.676,6.801 122.551,7.672 123.617,7.672 C123.617,7.672 143.621,7.668 143.988,7.668 C143.73,7.895 122.781,26.266 122.781,26.266 C121.977,26.973 121.324,28.422 121.32,29.488 L121.32,31.934 C121.32,33.004 122.195,33.875 123.262,33.875 L156.047,33.875 C157.113,33.875 157.988,33.004 157.988,31.934 L157.988,28.047 C157.988,26.977 157.113,26.105 156.047,26.105" id="Fill-6" fill="#D61541"></path>
            <path d="M237.281,26.219 L211.855,26.211 L211.855,20.73 L232.242,20.727 C233.309,20.727 234.188,19.852 234.191,18.785 L234.203,15.074 C234.207,14.008 233.336,13.129 232.266,13.129 L211.855,13.121 L211.855,7.637 L237.281,7.633 C238.352,7.633 239.223,6.758 239.223,5.691 L239.223,1.953 C239.223,0.887 238.352,0.012 237.281,0.012 L206.07,0.012 C205,0.012 204.129,0.887 204.129,1.953 L204.129,31.887 C204.129,32.957 205,33.828 206.07,33.828 L237.277,33.828 C238.348,33.828 239.219,32.957 239.223,31.887 L239.223,28.16 C239.223,27.094 238.352,26.219 237.281,26.219" id="Fill-7" fill="#D61541"></path>
            <path d="M35.004,0.035 L31.133,0.035 C30.066,0.035 29.191,0.91 29.191,1.977 L29.188,13.074 L7.824,13.074 L7.816,1.941 C7.816,0.875 6.941,0 5.875,0 L1.953,0 C0.883,0 0.008,0.875 0.008,1.941 L0.008,31.941 C0.008,33.012 0.883,33.887 1.953,33.887 L5.875,33.887 C6.941,33.887 7.816,33.012 7.816,31.941 L7.82,20.68 L29.188,20.68 L29.195,31.941 C29.195,33.012 30.066,33.883 31.137,33.879 L35.004,33.875 C36.078,33.871 36.949,32.996 36.949,31.926 L36.949,1.977 C36.949,0.91 36.078,0.035 35.004,0.035" id="Fill-8" fill="#D61541"></path>
            <path d="M75.227,26.219 L49.797,26.219 L49.797,20.738 L70.184,20.727 C71.25,20.727 72.129,19.852 72.133,18.785 L72.145,15.074 C72.148,14.008 71.277,13.129 70.207,13.129 L49.797,13.125 L49.797,7.637 L75.223,7.633 C76.293,7.633 77.164,6.758 77.164,5.691 L77.164,1.953 C77.164,0.887 76.293,0.012 75.223,0.012 L44.012,0.012 C42.941,0.012 42.066,0.887 42.066,1.953 L42.066,31.887 C42.066,32.957 42.941,33.828 44.012,33.828 L75.219,33.828 C76.289,33.828 77.16,32.957 77.164,31.887 L77.164,28.16 C77.168,27.094 76.293,26.219 75.227,26.219" id="Fill-9" fill="#D61541"></path>
            <path d="M115.578,0.051 L83.25,0.051 C82.18,0.051 81.309,0.926 81.309,1.992 L81.309,5.727 C81.309,6.793 82.18,7.668 83.25,7.668 L95.555,7.668 L95.555,31.918 C95.555,32.988 96.426,33.863 97.492,33.863 L101.656,33.863 C102.727,33.863 103.598,32.988 103.598,31.918 L103.605,7.668 L115.578,7.668 C116.648,7.668 117.52,6.793 117.52,5.727 L117.52,1.992 C117.52,0.926 116.648,0.051 115.578,0.051" id="Fill-10" fill="#D61541"></path>
            <path d="M269.746,14.563 L251.41,14.57 L251.41,7.676 L269.746,7.664 C271.313,7.664 272.594,8.945 272.594,10.516 L272.594,10.969 C272.598,11.031 272.613,11.086 272.613,11.152 C272.613,11.207 272.598,11.262 272.594,11.316 L272.594,11.711 C272.594,13.277 271.313,14.563 269.746,14.563 Z M272.219,21.531 C274.34,21.027 276.398,20.219 277.793,18.535 C277.813,18.516 277.828,18.504 277.848,18.484 C279.543,16.43 280.406,13.977 280.406,11.188 C280.406,8.855 279.824,6.777 278.672,5.012 C276.73,1.988 274.008,0.363 270.586,0.184 C270.566,0.184 268.914,0.141 268.914,0.141 C267.848,0.109 266.102,0.082 265.031,0.078 L245.777,0.043 C244.703,0.039 243.836,0.914 243.836,1.98 L243.836,31.934 C243.836,33.004 244.703,33.879 245.777,33.879 L249.449,33.879 C250.52,33.879 251.395,33.004 251.395,31.934 L251.383,22.172 L260.426,22.156 C261.496,22.156 262.977,22.781 263.719,23.551 L272.594,32.465 C273.336,33.23 274.566,33.859 275.633,33.859 L282.445,33.859 C283.512,33.859 283.773,33.238 283.023,32.48 C283.023,32.48 272.477,21.797 272.219,21.535 L272.219,21.531 Z" id="Fill-11" fill="#D61541"></path>
            <path d="M156.047,26.105 C156.047,26.105 134.773,26.102 134.395,26.102 L155.727,7.359 C156.527,6.656 157.176,5.207 157.172,4.137 L157.168,1.977 C157.164,0.91 156.285,0.035 155.223,0.035 L123.617,0.035 C122.551,0.035 121.676,0.91 121.676,1.977 L121.676,5.734 C121.676,6.801 122.551,7.672 123.617,7.672 C123.617,7.672 143.621,7.668 143.988,7.668 C143.73,7.895 122.781,26.266 122.781,26.266 C121.977,26.973 121.324,28.422 121.32,29.488 L121.32,31.934 C121.32,33.004 122.195,33.875 123.262,33.875 L156.047,33.875 C157.113,33.875 157.988,33.004 157.988,31.934 L157.988,28.047 C157.988,26.977 157.113,26.105 156.047,26.105" id="Fill-12" fill="#D61541"></path>
            <polygon id="Fill-13" fill="#4F4C4C" points="0 55.004 166.535 55.004 166.535 53.152 0 53.152"></polygon>
            <polygon id="Fill-14" fill="#4F4C4C" points="255.488 54.997 283.465 54.997 283.465 53.145 255.488 53.145"></polygon>
            <path d="M199.637,11.844 C199.633,11.633 199.637,11.387 199.641,11.113 C199.637,8.789 199.055,6.719 197.906,4.965 C195.965,1.941 193.176,0.211 189.754,0.031 C189.734,0.027 163.973,0.035 163.973,0.035 C162.906,0.035 162.027,0.91 162.027,1.977 L162.027,31.926 C162.027,32.996 162.906,33.867 163.973,33.867 L168.082,33.871 C169.137,33.871 170.004,33.016 170.023,31.965 L170.023,7.668 L186.508,7.668 C189.355,7.668 191.688,10 191.688,12.848 L191.688,13.742 C191.688,13.762 191.691,13.781 191.691,13.793 C191.691,14.316 191.691,14.746 191.688,14.754 L191.688,31.922 C191.688,32.988 192.563,33.859 193.633,33.859 L197.699,33.859 C198.766,33.859 199.641,32.988 199.641,31.922 L199.641,18.938 L199.637,15.492 L199.637,11.844" id="Fill-15" fill="#D61541"></path>
            <path d="M179.57,55.133 C173.402,55.133 172.348,54.383 172.348,49.387 L172.348,49.047 C172.348,44.082 173.332,43.301 179.57,43.301 L180.098,43.301 C185.723,43.301 186.59,43.98 186.59,46.957 L186.59,47.398 L184.145,47.398 L184.145,47.176 C184.145,45.613 183.82,45.273 180.012,45.273 L179.656,45.273 C175.285,45.273 174.898,45.547 174.898,49.113 L174.898,49.32 C174.898,52.836 175.285,53.125 179.656,53.125 L180.012,53.125 C183.871,53.125 184.281,52.82 184.281,51.105 L184.281,50.918 L186.727,50.918 L186.727,51.461 C186.727,54.316 185.723,55.133 180.098,55.133 L179.57,55.133" id="Fill-16" fill="#4F4C4C"></path>
            <polyline id="Fill-17" fill="#4F4C4C" points="199.902 54.996 189.008 54.996 189.008 43.438 191.539 43.438 191.539 52.992 199.902 52.992 199.902 54.996"></polyline>
            <path d="M208.453,53.145 C212.941,53.145 213.316,52.82 213.316,49.301 L213.316,49.113 C213.316,45.563 212.941,45.258 208.453,45.258 L208.113,45.258 C203.645,45.258 203.254,45.563 203.254,49.113 L203.254,49.301 C203.254,52.82 203.645,53.145 208.113,53.145 L208.453,53.145 Z M208.027,55.133 C201.656,55.133 200.703,54.418 200.703,49.387 L200.703,49.047 C200.703,44 201.656,43.301 208.027,43.301 L208.539,43.301 C214.914,43.301 215.867,44 215.867,49.047 L215.867,49.387 C215.867,54.438 214.914,55.133 208.539,55.133 L208.027,55.133 L208.027,55.133 Z" id="Fill-18" fill="#4F4C4C"></path>
            <path d="M224.891,55.133 C219.18,55.133 218.109,54.23 218.109,50.746 L218.109,43.438 L220.645,43.438 L220.645,50.203 C220.645,52.82 221.203,53.125 224.875,53.125 L225.25,53.125 C228.922,53.125 229.516,52.805 229.516,50.203 L229.516,43.438 L232.051,43.438 L232.051,50.746 C232.051,54.215 230.996,55.133 225.234,55.133 L224.891,55.133" id="Fill-19" fill="#4F4C4C"></path>
            <path d="M241.996,52.992 C246.535,52.992 246.871,52.566 246.871,49.301 L246.871,49.098 C246.871,45.715 246.484,45.41 241.996,45.41 L237.117,45.41 L237.117,52.992 L241.996,52.992 Z M249.406,49.387 C249.406,54.266 248.574,54.996 242.199,54.996 L234.582,54.996 L234.582,43.438 L242.199,43.438 C248.555,43.438 249.406,44.102 249.406,49.047 L249.406,49.387 L249.406,49.387 Z" id="Fill-20" fill="#4F4C4C"></path>
        </g>
    </g>
</svg>