<svg width="284" height="56" viewBox="0 0 284 56" fill="none" xmlns="http://www.w3.org/2000/svg">
<path fill-rule="evenodd" clip-rule="evenodd" d="M237.281 26.219L211.855 26.211V20.73L232.242 20.727C233.309 20.727 234.188 19.852 234.191 18.785L234.203 15.074C234.207 14.008 233.336 13.129 232.266 13.129L211.855 13.121V7.63696L237.281 7.63296C238.352 7.63296 239.223 6.75796 239.223 5.69096V1.95296C239.223 0.886963 238.352 0.0119629 237.281 0.0119629H206.07C205 0.0119629 204.129 0.886963 204.129 1.95296V31.887C204.129 32.957 205 33.828 206.07 33.828H237.277C238.348 33.828 239.219 32.957 239.223 31.887V28.16C239.223 27.094 238.352 26.219 237.281 26.219Z" fill="white"/>
<path fill-rule="evenodd" clip-rule="evenodd" d="M35.0041 0.035H31.1331C30.0661 0.035 29.1911 0.91 29.1911 1.977L29.1881 13.074H7.82406L7.81606 1.941C7.81606 0.875 6.94106 0 5.87506 0H1.95306C0.883057 0 0.00805664 0.875 0.00805664 1.941V31.941C0.00805664 33.012 0.883057 33.887 1.95306 33.887H5.87506C6.94106 33.887 7.81606 33.012 7.81606 31.941L7.82006 20.68H29.1881L29.1951 31.941C29.1951 33.012 30.0661 33.883 31.1371 33.879L35.0041 33.875C36.0781 33.871 36.9491 32.996 36.9491 31.926V1.977C36.9491 0.91 36.0781 0.035 35.0041 0.035Z" fill="white"/>
<path fill-rule="evenodd" clip-rule="evenodd" d="M75.227 26.219H49.797V20.738L70.184 20.727C71.25 20.727 72.129 19.852 72.133 18.785L72.145 15.074C72.148 14.008 71.277 13.129 70.207 13.129L49.797 13.125V7.63696L75.223 7.63296C76.293 7.63296 77.164 6.75796 77.164 5.69096V1.95296C77.164 0.886963 76.293 0.0119629 75.223 0.0119629H44.012C42.941 0.0119629 42.066 0.886963 42.066 1.95296V31.887C42.066 32.957 42.941 33.828 44.012 33.828H75.219C76.289 33.828 77.16 32.957 77.164 31.887V28.16C77.168 27.094 76.293 26.219 75.227 26.219Z" fill="white"/>
<path fill-rule="evenodd" clip-rule="evenodd" d="M115.578 0.0510254H83.25C82.18 0.0510254 81.309 0.926025 81.309 1.99203V5.72703C81.309 6.79303 82.18 7.66803 83.25 7.66803H95.555V31.918C95.555 32.988 96.426 33.863 97.492 33.863H101.656C102.727 33.863 103.598 32.988 103.598 31.918L103.605 7.66803H115.578C116.648 7.66803 117.52 6.79303 117.52 5.72703V1.99203C117.52 0.926025 116.648 0.0510254 115.578 0.0510254Z" fill="white"/>
<path fill-rule="evenodd" clip-rule="evenodd" d="M269.746 14.563L251.41 14.57V7.67598L269.746 7.66398C271.313 7.66398 272.594 8.94498 272.594 10.516V10.969C272.598 11.031 272.613 11.086 272.613 11.152C272.613 11.207 272.598 11.262 272.594 11.316V11.711C272.594 13.277 271.313 14.563 269.746 14.563ZM272.219 21.531C274.34 21.027 276.398 20.219 277.793 18.535C277.813 18.516 277.828 18.504 277.848 18.484C279.543 16.43 280.406 13.977 280.406 11.188C280.406 8.85498 279.824 6.77698 278.672 5.01198C276.73 1.98798 274.008 0.362982 270.586 0.183982C270.566 0.183982 268.914 0.140982 268.914 0.140982C267.848 0.108982 266.102 0.0819824 265.031 0.0779824L245.777 0.0429824C244.703 0.0389824 243.836 0.913982 243.836 1.97998V31.934C243.836 33.004 244.703 33.879 245.777 33.879H249.449C250.52 33.879 251.395 33.004 251.395 31.934L251.383 22.172L260.426 22.156C261.496 22.156 262.977 22.781 263.719 23.551L272.594 32.465C273.336 33.23 274.566 33.859 275.633 33.859H282.445C283.512 33.859 283.773 33.238 283.023 32.48C283.023 32.48 272.477 21.797 272.219 21.535V21.531Z" fill="white"/>
<path fill-rule="evenodd" clip-rule="evenodd" d="M156.047 26.1049C156.047 26.1049 134.773 26.1019 134.395 26.1019L155.727 7.35891C156.527 6.65591 157.176 5.20691 157.172 4.13691L157.168 1.97691C157.164 0.909912 156.285 0.0349121 155.223 0.0349121H123.617C122.551 0.0349121 121.676 0.909912 121.676 1.97691V5.73391C121.676 6.80091 122.551 7.67191 123.617 7.67191C123.617 7.67191 143.621 7.66791 143.988 7.66791C143.73 7.89491 122.781 26.2659 122.781 26.2659C121.977 26.9729 121.324 28.4219 121.32 29.4879V31.9339C121.32 33.0039 122.195 33.8749 123.262 33.8749H156.047C157.113 33.8749 157.988 33.0039 157.988 31.9339V28.0469C157.988 26.9769 157.113 26.1049 156.047 26.1049Z" fill="white"/>
<path fill-rule="evenodd" clip-rule="evenodd" d="M237.281 26.219L211.855 26.211V20.73L232.242 20.727C233.309 20.727 234.188 19.852 234.191 18.785L234.203 15.074C234.207 14.008 233.336 13.129 232.266 13.129L211.855 13.121V7.63696L237.281 7.63296C238.352 7.63296 239.223 6.75796 239.223 5.69096V1.95296C239.223 0.886963 238.352 0.0119629 237.281 0.0119629H206.07C205 0.0119629 204.129 0.886963 204.129 1.95296V31.887C204.129 32.957 205 33.828 206.07 33.828H237.277C238.348 33.828 239.219 32.957 239.223 31.887V28.16C239.223 27.094 238.352 26.219 237.281 26.219Z" fill="white"/>
<path fill-rule="evenodd" clip-rule="evenodd" d="M35.0041 0.035H31.1331C30.0661 0.035 29.1911 0.91 29.1911 1.977L29.1881 13.074H7.82406L7.81606 1.941C7.81606 0.875 6.94106 0 5.87506 0H1.95306C0.883057 0 0.00805664 0.875 0.00805664 1.941V31.941C0.00805664 33.012 0.883057 33.887 1.95306 33.887H5.87506C6.94106 33.887 7.81606 33.012 7.81606 31.941L7.82006 20.68H29.1881L29.1951 31.941C29.1951 33.012 30.0661 33.883 31.1371 33.879L35.0041 33.875C36.0781 33.871 36.9491 32.996 36.9491 31.926V1.977C36.9491 0.91 36.0781 0.035 35.0041 0.035Z" fill="white"/>
<path fill-rule="evenodd" clip-rule="evenodd" d="M75.227 26.219H49.797V20.738L70.184 20.727C71.25 20.727 72.129 19.852 72.133 18.785L72.145 15.074C72.148 14.008 71.277 13.129 70.207 13.129L49.797 13.125V7.63696L75.223 7.63296C76.293 7.63296 77.164 6.75796 77.164 5.69096V1.95296C77.164 0.886963 76.293 0.0119629 75.223 0.0119629H44.012C42.941 0.0119629 42.066 0.886963 42.066 1.95296V31.887C42.066 32.957 42.941 33.828 44.012 33.828H75.219C76.289 33.828 77.16 32.957 77.164 31.887V28.16C77.168 27.094 76.293 26.219 75.227 26.219Z" fill="white"/>
<path fill-rule="evenodd" clip-rule="evenodd" d="M115.578 0.0510254H83.25C82.18 0.0510254 81.309 0.926025 81.309 1.99203V5.72703C81.309 6.79303 82.18 7.66803 83.25 7.66803H95.555V31.918C95.555 32.988 96.426 33.863 97.492 33.863H101.656C102.727 33.863 103.598 32.988 103.598 31.918L103.605 7.66803H115.578C116.648 7.66803 117.52 6.79303 117.52 5.72703V1.99203C117.52 0.926025 116.648 0.0510254 115.578 0.0510254Z" fill="white"/>
<path fill-rule="evenodd" clip-rule="evenodd" d="M269.746 14.563L251.41 14.57V7.67598L269.746 7.66398C271.313 7.66398 272.594 8.94498 272.594 10.516V10.969C272.598 11.031 272.613 11.086 272.613 11.152C272.613 11.207 272.598 11.262 272.594 11.316V11.711C272.594 13.277 271.313 14.563 269.746 14.563ZM272.219 21.531C274.34 21.027 276.398 20.219 277.793 18.535C277.813 18.516 277.828 18.504 277.848 18.484C279.543 16.43 280.406 13.977 280.406 11.188C280.406 8.85498 279.824 6.77698 278.672 5.01198C276.73 1.98798 274.008 0.362982 270.586 0.183982C270.566 0.183982 268.914 0.140982 268.914 0.140982C267.848 0.108982 266.102 0.0819824 265.031 0.0779824L245.777 0.0429824C244.703 0.0389824 243.836 0.913982 243.836 1.97998V31.934C243.836 33.004 244.703 33.879 245.777 33.879H249.449C250.52 33.879 251.395 33.004 251.395 31.934L251.383 22.172L260.426 22.156C261.496 22.156 262.977 22.781 263.719 23.551L272.594 32.465C273.336 33.23 274.566 33.859 275.633 33.859H282.445C283.512 33.859 283.773 33.238 283.023 32.48C283.023 32.48 272.477 21.797 272.219 21.535V21.531Z" fill="white"/>
<path fill-rule="evenodd" clip-rule="evenodd" d="M156.047 26.1049C156.047 26.1049 134.773 26.1019 134.395 26.1019L155.727 7.35891C156.527 6.65591 157.176 5.20691 157.172 4.13691L157.168 1.97691C157.164 0.909912 156.285 0.0349121 155.223 0.0349121H123.617C122.551 0.0349121 121.676 0.909912 121.676 1.97691V5.73391C121.676 6.80091 122.551 7.67191 123.617 7.67191C123.617 7.67191 143.621 7.66791 143.988 7.66791C143.73 7.89491 122.781 26.2659 122.781 26.2659C121.977 26.9729 121.324 28.4219 121.32 29.4879V31.9339C121.32 33.0039 122.195 33.8749 123.262 33.8749H156.047C157.113 33.8749 157.988 33.0039 157.988 31.9339V28.0469C157.988 26.9769 157.113 26.1049 156.047 26.1049Z" fill="white"/>
<path fill-rule="evenodd" clip-rule="evenodd" d="M0 55.0041H166.535V53.1521H0V55.0041Z" fill="white"/>
<path fill-rule="evenodd" clip-rule="evenodd" d="M255.488 54.997H283.465V53.145H255.488V54.997Z" fill="white"/>
<path fill-rule="evenodd" clip-rule="evenodd" d="M199.637 11.8439C199.633 11.6329 199.637 11.3869 199.641 11.1129C199.637 8.78891 199.055 6.71891 197.906 4.96491C195.965 1.94091 193.176 0.210905 189.754 0.0309052C189.734 0.0269052 163.973 0.0349052 163.973 0.0349052C162.906 0.0349052 162.027 0.909905 162.027 1.97691V31.9259C162.027 32.9959 162.906 33.8669 163.973 33.8669L168.082 33.8709C169.137 33.8709 170.004 33.0159 170.023 31.9649V7.66791H186.508C189.355 7.66791 191.688 9.99991 191.688 12.8479V13.7419C191.688 13.7619 191.691 13.7809 191.691 13.7929C191.691 14.3159 191.691 14.7459 191.688 14.7539V31.9219C191.688 32.9879 192.563 33.8589 193.633 33.8589H197.699C198.766 33.8589 199.641 32.9879 199.641 31.9219V18.9379L199.637 15.4919V11.8439Z" fill="white"/>
<path fill-rule="evenodd" clip-rule="evenodd" d="M179.57 55.133C173.402 55.133 172.348 54.383 172.348 49.387V49.047C172.348 44.082 173.332 43.301 179.57 43.301H180.098C185.723 43.301 186.59 43.98 186.59 46.957V47.398H184.145V47.176C184.145 45.613 183.82 45.273 180.012 45.273H179.656C175.285 45.273 174.898 45.547 174.898 49.113V49.32C174.898 52.836 175.285 53.125 179.656 53.125H180.012C183.871 53.125 184.281 52.82 184.281 51.105V50.918H186.727V51.461C186.727 54.316 185.723 55.133 180.098 55.133H179.57Z" fill="white"/>
<path fill-rule="evenodd" clip-rule="evenodd" d="M199.902 54.996H189.008V43.438H191.539V52.992H199.902V54.996Z" fill="white"/>
<path fill-rule="evenodd" clip-rule="evenodd" d="M208.453 53.145C212.941 53.145 213.316 52.82 213.316 49.301V49.113C213.316 45.563 212.941 45.258 208.453 45.258H208.113C203.645 45.258 203.254 45.563 203.254 49.113V49.301C203.254 52.82 203.645 53.145 208.113 53.145H208.453ZM208.027 55.133C201.656 55.133 200.703 54.418 200.703 49.387V49.047C200.703 44 201.656 43.301 208.027 43.301H208.539C214.914 43.301 215.867 44 215.867 49.047V49.387C215.867 54.438 214.914 55.133 208.539 55.133H208.027Z" fill="white"/>
<path fill-rule="evenodd" clip-rule="evenodd" d="M224.891 55.133C219.18 55.133 218.109 54.23 218.109 50.746V43.438H220.645V50.203C220.645 52.82 221.203 53.125 224.875 53.125H225.25C228.922 53.125 229.516 52.805 229.516 50.203V43.438H232.051V50.746C232.051 54.215 230.996 55.133 225.234 55.133H224.891Z" fill="white"/>
<path fill-rule="evenodd" clip-rule="evenodd" d="M241.996 52.992C246.535 52.992 246.871 52.566 246.871 49.301V49.098C246.871 45.715 246.484 45.41 241.996 45.41H237.117V52.992H241.996ZM249.406 49.387C249.406 54.266 248.574 54.996 242.199 54.996H234.582V43.438H242.199C248.555 43.438 249.406 44.102 249.406 49.047V49.387Z" fill="white"/>
</svg>
