<svg width="311" height="90" viewBox="0 0 311 90" fill="none" xmlns="http://www.w3.org/2000/svg">
<path d="M93.429 18.296L102.712 16.0552V60.8712C102.712 65.833 104.153 68.714 107.034 69.6744C105.593 72.3953 103.192 73.8358 99.6712 73.8358C95.5097 73.8358 93.2689 70.9548 93.2689 65.0327V18.296H93.429ZM116.797 73.0356V40.704H111.676V33.0212H126.241V73.0356H116.797V73.0356ZM121.599 17.6557C123.04 17.6557 124.32 18.1359 125.44 19.2563C126.561 20.3767 127.041 21.6572 127.041 23.0977C127.041 24.5382 126.561 25.8187 125.44 26.9391C124.32 28.0595 123.04 28.5396 121.599 28.5396C120.159 28.5396 118.878 28.0595 117.758 26.9391C116.637 25.8187 116.157 24.5382 116.157 23.0977C116.157 21.6572 116.637 20.3767 117.758 19.2563C118.878 18.1359 120.159 17.6557 121.599 17.6557ZM162.734 73.0356V49.9873C162.734 46.6261 162.094 44.0652 160.813 42.6247C159.533 41.0241 157.452 40.2238 154.411 40.2238C152.97 40.2238 151.53 40.5439 150.089 41.3442C148.489 42.1445 147.368 43.1049 146.408 44.2253V73.0356H137.125V33.1813H143.847L145.608 36.8626C148.169 33.8215 151.85 32.381 156.812 32.381C161.613 32.381 165.295 33.8215 168.016 36.7026C170.737 39.5836 172.177 43.585 172.177 48.5468V73.0356H162.734V73.0356ZM179.38 53.0284C179.38 46.9462 181.14 41.9845 184.662 38.1431C188.183 34.3017 192.825 32.381 198.587 32.381C204.669 32.381 209.31 34.1416 212.672 37.823C216.033 41.5043 217.633 46.4661 217.633 52.8683C217.633 59.2706 215.873 64.2324 212.512 68.0738C209.15 71.7551 204.509 73.6758 198.427 73.6758C192.344 73.6758 187.703 71.7551 184.341 68.0738C181.14 64.2324 179.38 59.2706 179.38 53.0284V53.0284ZM189.143 53.0284C189.143 61.8316 192.344 66.1531 198.587 66.1531C201.468 66.1531 203.708 65.0327 205.469 62.7919C207.23 60.5511 208.03 57.1899 208.03 53.0284C208.03 44.3853 204.829 40.0638 198.587 40.0638C195.706 40.0638 193.305 41.1842 191.704 43.425C189.944 45.6658 189.143 48.8669 189.143 53.0284V53.0284ZM250.765 73.0356V70.6347C249.965 71.435 248.685 72.2353 246.924 72.8755C245.163 73.5157 243.243 73.8358 241.162 73.8358C235.56 73.8358 231.238 72.0752 228.037 68.554C224.836 65.0327 223.235 60.0709 223.235 53.8287C223.235 47.5865 224.996 42.4646 228.677 38.4632C232.359 34.4618 236.84 32.5411 242.442 32.5411C245.483 32.5411 248.204 33.1813 250.765 34.4618V18.456L260.049 16.2152V73.0356H250.765V73.0356ZM250.765 42.6247C248.845 41.0241 246.764 40.2238 244.523 40.2238C240.842 40.2238 237.961 41.3442 235.88 43.585C233.799 45.8258 232.839 49.187 232.839 53.3485C232.839 61.6715 236.84 65.833 244.843 65.833C245.803 65.833 246.764 65.5129 248.204 65.0327C249.485 64.5525 250.285 63.9123 250.765 63.4321V42.6247V42.6247ZM305.025 55.9094H276.534C276.695 59.1106 277.815 61.5114 279.736 63.2721C281.816 65.0327 284.377 65.993 287.899 65.993C292.06 65.993 295.421 64.8726 297.502 62.6318L301.183 69.6744C297.982 72.3953 293.02 73.6758 286.458 73.6758C280.376 73.6758 275.574 71.9152 272.053 68.3939C268.532 64.8726 266.771 59.9109 266.771 53.5086C266.771 47.2663 268.692 42.1445 272.533 38.3031C276.374 34.4618 281.016 32.5411 286.458 32.5411C292.22 32.5411 296.862 34.3017 300.383 37.6629C303.904 41.1842 305.665 45.5057 305.665 50.7876C305.825 51.908 305.505 53.5086 305.025 55.9094V55.9094ZM276.855 48.8669H296.382C295.741 43.1049 292.54 40.0638 286.778 40.0638C281.496 40.2238 278.135 43.1049 276.855 48.8669Z" fill="white"/>
<path d="M65.8999 47.4L64.8999 58.9L61.5999 56.5999L61.9999 50.7999V50.7V50.5999L61.8999 50.5L61.7999 50.4L54.6999 45.7L54.7999 40.5999L65.8999 47.4V47.4ZM48.4999 59.9L43.3999 56V56.9C43.3999 57.1 43.2999 57.3 43.1999 57.4L39.3999 60L43.5999 63.4L43.6999 63.5V63.7L43.8999 67.6999L48.5999 71.5999L48.4999 59.9V59.9ZM16.3999 64.9L18.7999 76.4L28.6999 86.9L26.9999 75.3L16.3999 64.9ZM25.6999 66.5999L23.2999 50.5L11.2999 40.5L14.4999 56.0999L25.6999 66.5999ZM21.8999 40.5999L18.5999 17.8L4.79993 9.19995L9.29993 30.7L21.8999 40.5999V40.5999Z" fill="white"/>
<path d="M75.7 41.2001L74.2 52.1L66 58.7001L67 47.5L75.7 41.2001ZM49.6 59.9001L49.7 71.7L60.2 63.3L60.9 51.8L49.6 59.9001V59.9001ZM42.8 64.7L28 75.3L29.8 87.5L43.2 76.8L42.8 64.7ZM42.4 56.7001L41.7 40.7001L24.4 50.6L26.8 67.2L42.4 56.7001V56.7001ZM41.3 31.4L40.4 9.80005L19.6 17.8L23 41L41.3 31.4V31.4Z" fill="white"/>
<path d="M76.9 40C76.9 39.9 76.9 39.9 76.9 40V39.8C76.9 39.8 76.9 39.7 76.8 39.7C76.8 39.7 76.7 39.7 76.7 39.6L64.6999 32.9C64.4999 32.8 64.2999 32.8 64.1999 32.9L54 39.1H53.9V39.7L53.7999 45.1L49.7 42.4C49.5 42.3 49.2999 42.3 49.0999 42.4L43 45.8L42.7 39.8V39.7V39.6V39.5V39.4V39.3H42.5999L36.4 35.2L42.2 32.2C42.4 32.1 42.5 31.9 42.5 31.7L41.4 9V8.9C41.4 8.9 41.3999 8.8 41.2999 8.8C41.2999 8.8 41.3 8.7 41.2 8.7L25.5 1.1C25.4 1 25.3 1 25.2 1L3.89995 7.6C3.89995 7.6 3.79995 7.6 3.79995 7.7C3.79995 7.7 3.69995 7.7 3.69995 7.8V8.4L8.39995 31.3C8.39995 31.4 8.49995 31.5 8.59995 31.6L15 36.6L10.3 38.8C10.3 38.8 10.2 38.8 10.2 38.9C10.2 38.9 10.2 39 10.1 39V39.2L13.7 56.4C13.7 56.5 13.8 56.6 13.9 56.7L18.4 60.9L15.4 62.7L15.3 62.8C15.3 62.8 15.3 62.9 15.2 62.9V63.2L18 76.5C18 76.6 18.1 76.7 18.1 76.8L29 88.8H29.1C29.1 88.8 29.2 88.8 29.2 88.9H29.7L44.0999 77.4C44.1999 77.3 44.2999 77.1 44.2999 77L44 69.1L48.7999 73.1C48.7999 73.1 48.9 73.1 48.9 73.2H49.4L61 64C61.1 63.9 61.2 63.8 61.2 63.6L61.5999 57.8L65.0999 60.2H65.5C65.5 60.2 65.5999 60.2 65.5999 60.1L75 52.6C75.1 52.5 75.2 52.4 75.2 52.3L76.9 40C76.9 40.1 76.9 40.1 76.9 40ZM66 58.7L67 47.5L75.8 41.2L74.3 52.1L66 58.7ZM61.5999 56.6L62 50.8V50.7V50.6L61.9 50.5L61.7999 50.4L54.7 45.7L54.7999 40.6L65.9 47.5L64.9 59L61.5999 56.6V56.6ZM60.0999 63.3L49.5999 71.7L49.5 59.9L60.7999 51.8L60.0999 63.3V63.3ZM43.2999 76.8L29.7999 87.5L28 75.3L42.7 64.8L43.2999 76.8V76.8ZM18.7 76.4L16.3 64.9L27 75.3L28.7 86.9L18.7 76.4V76.4ZM18.5 17.8L21.7999 40.6L9.29995 30.7L4.79995 9.2L18.5 17.8V17.8ZM40.4 9.8L41.2999 31.4L23 41L19.6 17.8L40.4 9.8V9.8ZM42.4 56.7L26.7999 67.1L24.4 50.5L41.7 40.6L42.4 56.7V56.7ZM23.2999 50.6L25.7 66.7L14.5 56.1L11.3 40.5L23.2999 50.6ZM43.7999 63.7V63.6V63.5L43.7 63.4L39.5 60L43.2999 57.4C43.4999 57.3 43.5 57.1 43.5 56.9V56L48.5999 59.9L48.7 71.7L44 67.8L43.7999 63.7V63.7Z" fill="white"/>
</svg>
