<svg xmlns="http://www.w3.org/2000/svg" width="310.9655156290062" height="90" style=""><rect id="backgroundrect" width="100%" height="100%" x="0" y="0" fill="none" stroke="none" class="" style=""/><g class="currentLayer" style=""><title>Layer 1</title><path d="M93.42901545394339,18.295974052625404 l9.283321089693633,-2.2408016423398425 v44.81603284679685 c0,4.9617750651810795 1.4405153415041847,7.842805748189449 4.321546024512553,8.803149309192237 c-1.4405153415041847,2.7209734228412374 -3.841374244011158,4.161488764345422 -7.362633967688054,4.161488764345422 c-4.161488764345422,0 -6.402290406685264,-2.8810306830083694 -6.402290406685264,-8.803149309192237 V18.295974052625404 zM116.79737543834462,73.03555702978441 V40.70399047602383 h-5.121832325348211 V33.021241988001506 h14.565210675208977 v40.0143150417829 h-9.443378349860765 zm4.801717805013948,-55.37981201782753 c1.4405153415041847,0 2.7209734228412374,0.4801717805013957 3.841374244011158,1.600572601671316 s1.600572601671316,2.4008589025069744 1.600572601671316,3.841374244011158 c0,1.4405153415041847 -0.4801717805013957,2.7209734228412374 -1.600572601671316,3.841374244011158 s-2.4008589025069744,1.600572601671316 -3.841374244011158,1.600572601671316 c-1.4405153415041847,0 -2.7209734228412374,-0.4801717805013957 -3.841374244011158,-1.600572601671316 s-1.600572601671316,-2.4008589025069744 -1.600572601671316,-3.841374244011158 c0,-1.4405153415041847 0.4801717805013957,-2.7209734228412374 1.600572601671316,-3.841374244011158 s2.4008589025069744,-1.600572601671316 3.841374244011158,-1.600572601671316 zM162.73380910631138,73.03555702978441 V49.98731156571746 c0,-3.3612024635097635 -0.6402290406685268,-5.922118626183871 -1.920687122005579,-7.362633967688054 c-1.2804580813370525,-1.600572601671316 -3.3612024635097635,-2.4008589025069744 -6.402290406685264,-2.4008589025069744 c-1.4405153415041847,0 -2.8810306830083694,0.32011452033426363 -4.321546024512553,1.1204008211699228 c-1.600572601671316,0.8002863008356575 -2.7209734228412374,1.7606298618384484 -3.681316983844027,2.8810306830083694 v28.810306830083697 h-9.283321089693633 V33.18129924816864 h6.722404927019527 l1.7606298618384484,3.681316983844027 c2.560916162674106,-3.041087943175501 6.242233146518133,-4.481603284679685 11.204008211699213,-4.481603284679685 c4.801717805013948,0 8.483034788857974,1.4405153415041847 11.204008211699213,4.321546024512553 c2.7209734228412374,2.8810306830083694 4.161488764345422,6.882462187186658 4.161488764345422,11.844237252367742 V73.03555702978441 h-9.443378349860765 zM179.37976416369307,53.02839950889296 c0,-6.082175886351001 1.7606298618384484,-11.043950951532079 5.2818895855153425,-14.88532519554324 c3.521259723676896,-3.841374244011158 8.162920268523711,-5.762061366016739 13.92498163454045,-5.762061366016739 c6.082175886351001,0 10.723836431197817,1.7606298618384484 14.085038894707584,5.441946845682475 c3.3612024635097635,3.681316983844027 4.9617750651810795,8.643092049025107 4.9617750651810795,15.045382455710373 s-1.7606298618384484,11.364065471866345 -5.121832325348211,15.205439715877501 c-3.3612024635097635,3.681316983844027 -8.002863008356579,5.6020041058496055 -14.085038894707584,5.6020041058496055 c-6.082175886351001,0 -10.723836431197817,-1.920687122005579 -14.085038894707584,-5.6020041058496055 c-3.201145203342631,-3.841374244011158 -4.9617750651810795,-8.803149309192237 -4.9617750651810795,-15.045382455710373 zm9.763492870195028,0 c0,8.803149309192237 3.201145203342631,13.124695333704791 9.443378349860765,13.124695333704791 c2.8810306830083694,0 5.121832325348211,-1.1204008211699228 6.882462187186658,-3.3612024635097635 c1.7606298618384484,-2.2408016423398425 2.560916162674106,-5.6020041058496055 2.560916162674106,-9.763492870195028 c0,-8.643092049025107 -3.201145203342631,-12.964638073537659 -9.443378349860765,-12.964638073537659 c-2.8810306830083694,0 -5.2818895855153425,1.1204008211699228 -6.882462187186658,3.3612024635097635 c-1.7606298618384484,2.2408016423398425 -2.560916162674106,5.441946845682475 -2.560916162674106,9.603435610027896 zM250.76530219823377,73.03555702978441 v-2.4008589025069744 c-0.8002863008356575,0.8002863008356575 -2.080744382172711,1.600572601671316 -3.841374244011158,2.2408016423398425 c-1.7606298618384484,0.6402290406685268 -3.681316983844027,0.9603435610027896 -5.762061366016739,0.9603435610027896 c-5.6020041058496055,0 -9.923550130362159,-1.7606298618384484 -13.124695333704791,-5.2818895855153425 c-3.201145203342631,-3.521259723676896 -4.801717805013948,-8.483034788857974 -4.801717805013948,-14.725267935376108 c0,-6.242233146518133 1.7606298618384484,-11.364065471866345 5.441946845682475,-15.365496976044632 s8.162920268523711,-5.922118626183871 13.764924374373315,-5.922118626183871 c3.041087943175501,0 5.762061366016739,0.6402290406685268 8.322977528690844,1.920687122005579 v-16.005726016713158 l9.283321089693633,-2.2408016423398425 V73.03555702978441 h-9.283321089693633 zm0,-30.410879431755003 c-1.920687122005579,-1.600572601671316 -4.0014315041782895,-2.4008589025069744 -6.242233146518133,-2.4008589025069744 c-3.681316983844027,0 -6.5623476668523955,1.1204008211699228 -8.643092049025107,3.3612024635097635 c-2.080744382172711,2.2408016423398425 -3.041087943175501,5.6020041058496055 -3.041087943175501,9.763492870195028 c0,8.322977528690844 4.0014315041782895,12.484466293036267 12.004294512534871,12.484466293036267 c0.9603435610027896,0 1.920687122005579,-0.32011452033426363 3.3612024635097635,-0.8002863008356575 c1.2804580813370525,-0.4801717805013957 2.080744382172711,-1.1204008211699228 2.560916162674106,-1.600572601671316 V42.624677598029415 zM305.02471339489136,55.909430191901336 h-28.490192309749425 c0.1600572601671319,3.201145203342631 1.2804580813370525,5.6020041058496055 3.201145203342631,7.362633967688054 c2.080744382172711,1.7606298618384484 4.6416605448468164,2.7209734228412374 8.162920268523711,2.7209734228412374 c4.161488764345422,0 7.522691227855186,-1.1204008211699228 9.603435610027896,-3.3612024635097635 l3.681316983844027,7.042519447353792 c-3.201145203342631,2.7209734228412374 -8.162920268523711,4.0014315041782895 -14.725267935376108,4.0014315041782895 c-6.082175886351001,0 -10.883893691364948,-1.7606298618384484 -14.405153415041841,-5.2818895855153425 c-3.521259723676896,-3.521259723676896 -5.2818895855153425,-8.483034788857974 -5.2818895855153425,-14.88532519554324 c0,-6.242233146518133 1.920687122005579,-11.364065471866345 5.762061366016739,-15.205439715877501 c3.841374244011158,-3.841374244011158 8.483034788857974,-5.762061366016739 13.92498163454045,-5.762061366016739 c5.762061366016739,0 10.403721910863554,1.7606298618384484 13.92498163454045,5.121832325348211 c3.521259723676896,3.521259723676896 5.2818895855153425,7.842805748189449 5.2818895855153425,13.124695333704791 c0.1600572601671319,1.1204008211699228 -0.1600572601671319,2.7209734228412374 -0.6402290406685268,5.121832325348211 zm-28.170077789415167,-7.042519447353792 h19.526985740390057 c-0.6402290406685268,-5.762061366016739 -3.841374244011158,-8.803149309192237 -9.603435610027896,-8.803149309192237 c-5.2818895855153425,0.1600572601671319 -8.643092049025107,3.041087943175501 -9.923550130362159,8.803149309192237 z" id="svg_1" class=""/><g id="svg_2"><path fill="#004712" d="M65.9 47.4l-1 11.5-3.3-2.3.4-5.8v-.1-.1l-.1-.1-.1-.1-7.1-4.7.1-5.1 11.1 6.8zM48.5 59.9L43.4 56v.9c0 .2-.1.4-.2.5L39.4 60l4.2 3.4.1.1v.2l.2 4 4.7 3.9-.1-11.7zm-32.1 5l2.4 11.5 9.9 10.5L27 75.3 16.4 64.9zm9.3 1.7l-2.4-16.1-12-10 3.2 15.6 11.2 10.5zm-3.8-26l-3.3-22.8L4.8 9.2l4.5 21.5 12.6 9.9z" id="svg_3"/><path fill="#00B259" d="M75.7 41.2l-1.5 10.9-8.2 6.6 1-11.2 8.7-6.3zM49.6 59.9l.1 11.8 10.5-8.4.7-11.5-11.3 8.1zm-6.8 4.8L28 75.3l1.8 12.2 13.4-10.7-.4-12.1zm-.4-8l-.7-16-17.3 9.9 2.4 16.6 15.6-10.5zm-1.1-25.3l-.9-21.6-20.8 8L23 41l18.3-9.6z" id="svg_4"/><path d="M76.9 40c0-.1 0-.1 0 0v-.2s0-.1-.1-.1c0 0-.1 0-.1-.1l-12-6.7c-.2-.1-.4-.1-.5 0L54 39.1h-.1v.6l-.1 5.4-4.1-2.7c-.2-.1-.4-.1-.6 0L43 45.8l-.3-6v-.1-.1-.1-.1-.1h-.1l-6.2-4.1 5.8-3c.2-.1.3-.3.3-.5L41.4 9v-.1s0-.1-.1-.1c0 0 0-.1-.1-.1L25.5 1.1c-.1-.1-.2-.1-.3-.1L3.9 7.6s-.1 0-.1.1c0 0-.1 0-.1.1v.6l4.7 22.9c0 .1.1.2.2.3l6.4 5-4.7 2.2s-.1 0-.1.1c0 0 0 .1-.1.1v.2l3.6 17.2c0 .1.1.2.2.3l4.5 4.2-3 1.8-.1.1s0 .1-.1.1V63.2L18 76.5c0 .1.1.2.1.3l10.9 12h.1s.1 0 .1.1h.5l14.4-11.5c.1-.1.2-.3.2-.4l-.3-7.9 4.8 4s.1 0 .1.1h.5L61 64c.1-.1.2-.2.2-.4l.4-5.8 3.5 2.4h.4s.1 0 .1-.1l9.4-7.5c.1-.1.2-.2.2-.3L76.9 40c0 .1 0 .1 0 0zM66 58.7l1-11.2 8.8-6.3-1.5 10.9-8.3 6.6zm-4.4-2.1l.4-5.8v-.1-.1l-.1-.1-.1-.1-7.1-4.7.1-5.1 11.1 6.9-1 11.5-3.3-2.4zm-1.5 6.7l-10.5 8.4-.1-11.8 11.3-8.1-.7 11.5zM43.3 76.8L29.8 87.5 28 75.3l14.7-10.5.6 12zm-24.6-.4l-2.4-11.5L27 75.3l1.7 11.6-10-10.5zm-.2-58.6l3.3 22.8-12.5-9.9L4.8 9.2l13.7 8.6zm21.9-8l.9 21.6L23 41l-3.4-23.2 20.8-8zm2 46.9L26.8 67.1l-2.4-16.6 17.3-9.9.7 16.1zm-19.1-6.1l2.4 16.1-11.2-10.6-3.2-15.6 12 10.1zm20.5 13.1v-.1-.1l-.1-.1-4.2-3.4 3.8-2.6c.2-.1.2-.3.2-.5V56l5.1 3.9.1 11.8-4.7-3.9-.2-4.1z" id="svg_5"/></g></g></svg>