<svg xmlns="http://www.w3.org/2000/svg" xmlns:xlink="http://www.w3.org/1999/xlink" viewBox="0 0 695.53 294.01"><defs><style>.cls-1{fill:url(#Безымянный_градиент_109);}.cls-2{fill:url(#Безымянный_градиент_31);}.cls-3{fill:url(#Безымянный_градиент_36);}.cls-4{fill:url(#Безымянный_градиент_36-2);}.cls-5{fill:url(#Безымянный_градиент_36-3);}.cls-6{fill:url(#Безымянный_градиент_36-4);}</style><radialGradient id="Безымянный_градиент_109" cx="187.56" cy="153.11" fy="308.4337346054831" r="293.41" gradientUnits="userSpaceOnUse"><stop offset="0.44" stop-color="#61adf2"/><stop offset="0.64" stop-color="#0284d3"/></radialGradient><linearGradient id="Безымянный_градиент_31" x1="184.83" y1="178.18" x2="187.51" y2="255.69" gradientUnits="userSpaceOnUse"><stop offset="0" stop-color="#409eff"/><stop offset="1" stop-color="#0071c6"/></linearGradient><linearGradient id="Безымянный_градиент_36" x1="386.93" y1="330.91" x2="401.54" y2="156.2" gradientUnits="userSpaceOnUse"><stop offset="0" stop-color="#60aeff"/><stop offset="1" stop-color="#0071c6"/></linearGradient><linearGradient id="Безымянный_градиент_36-2" x1="505.15" y1="340.79" x2="519.75" y2="166.08" xlink:href="#Безымянный_градиент_36"/><linearGradient id="Безымянный_градиент_36-3" x1="619.96" y1="350.39" x2="634.57" y2="175.69" xlink:href="#Безымянный_градиент_36"/><linearGradient id="Безымянный_градиент_36-4" x1="184.01" y1="333.71" x2="186.7" y2="159.3" xlink:href="#Безымянный_градиент_36"/></defs><title>My VPN (2)</title><g id="Слой_2" data-name="Слой 2"><g id="My_VPN" data-name="My VPN"><path class="cls-1" d="M186.62,180s-7.22-1-8-1-10-8-10-8L124,143l-1.94,43.92,0,89.47s-19.37-11.55-19.37-12.33c0-10.88-2.39-99.3-2.39-99.3l-26.43-9.32v-4.67C45.86,141.47,21,122,15.55,72.29S0,23.32,0,23.32s28.76.78,36.53,42.75,53.63,42.75,53.63,42.75l3.89-6.22s22.54,4.66,23.32,4.66c10.1-40.41,35-56,35-56l14,30.31L161.67,49l24.1-49Zm0,0a68.46,68.46,0,0,1,6.71-2.18c.78,0,9.54-6.82,9.54-6.82l43.72-28,1.94,43.92,4.66,86.83s17.6-4.51,17.6-5.28c0-10.89.48-103.71.48-103.71l26.43-9.32v-4.67c28-9.32,52.85-28.76,58.29-78.5s15.55-49,15.55-49S342.78,24.1,335,66.07s-53.63,42.75-53.63,42.75l-3.89-6.22s-22.54,4.66-23.32,4.66c-10.1-40.41-35-56-35-56l-14,30.31L209.87,49,185.77,0Z"/><path class="cls-2" d="M172.79,253.77l-18.73-33.43q-4.69-8.29-7.82-12.86a52.18,52.18,0,0,0-6-7.48H172a30.44,30.44,0,0,0,1,4.42,30.1,30.1,0,0,0,1.86,4.48l11,22.62h0L198.5,208.9a26.67,26.67,0,0,0,3.21-8.9H231a52.22,52.22,0,0,0-6,7.36q-3.18,4.57-8.18,13l-18.42,31.95V254a68.54,68.54,0,0,0,.77,11.25,42,42,0,0,0,2.63,9.09H169.39a43.19,43.19,0,0,0,2.63-9.09,69.67,69.67,0,0,0,.77-11.25Z"/><path class="cls-3" d="M351.61,175.76a72.29,72.29,0,0,0-5.4-11.75q-3.33-5.87-9.28-14.36h44.82a40.28,40.28,0,0,0-.59,7.66,27.07,27.07,0,0,0,1.15,6.7l20.31,67.55h0L425.82,164a27.36,27.36,0,0,0,1.54-6.78,33.33,33.33,0,0,0-.35-7.58h40.24a77.54,77.54,0,0,0-6.54,10.55q-3.06,5.88-7.11,15.56l-39.05,98.1H386.61Z"/><path class="cls-4" d="M478.92,247.75v-72a89,89,0,0,0-1-14.45,54.86,54.86,0,0,0-3.37-11.66h42.78q22.54,0,34.76,10t12.23,28.49q0,17.7-13.54,28.06t-36.55,10.36H511.7v21.19a89,89,0,0,0,1,14.45,54.89,54.89,0,0,0,3.38,11.66H474.56A56.81,56.81,0,0,0,478,262.2,93.07,93.07,0,0,0,478.92,247.75Zm32.78-43h1.11q8.66,0,14.17-4.92a16.23,16.23,0,0,0,5.52-12.7,14.08,14.08,0,0,0-5.16-11.27q-5.16-4.36-13.26-4.37H511.7Z"/><path class="cls-5" d="M615.76,247.75a89,89,0,0,0,1,14.45,54.86,54.86,0,0,0,3.37,11.66H580a54.28,54.28,0,0,0,3.37-11.66,87.74,87.74,0,0,0,1-14.45V169L567.9,149.65H613a117.56,117.56,0,0,0,5.79,10.55q3.59,5.88,10.16,15.56l30.8,45.48V175.76a89,89,0,0,0-1-14.45,54.32,54.32,0,0,0-3.38-11.66h40.17a54.32,54.32,0,0,0-3.38,11.66,89,89,0,0,0-1,14.45v60.8a176,176,0,0,0,1.19,18.89,182,182,0,0,0,2.86,18.41H658.38a39.2,39.2,0,0,0-3-7.14,81.1,81.1,0,0,0-4.8-8.26L615.76,207Z"/><path class="cls-6" d="M186,191V149.58l.34.07,55-29.73a22.92,22.92,0,0,0,3.47-5.51,17.27,17.27,0,0,0,1.21-5.75l17-3.91,15-2.64c-3.5,8.4-4.41,22-5.29,28.17s.27,12.85.27,19.52l1.77,98.66a87.67,87.67,0,0,0,1,14.24,53.39,53.39,0,0,0,3.33,11.5l-18.66,7.49L231.18,294c1.57-3.8,9-27.83,9.68-31.69a85.6,85.6,0,0,0,.88-14.08l-1.22-88h0L186.29,191M186,191l-54.23-30.74h0l-1.22,88a86.72,86.72,0,0,0,.88,14.08c.65,3.86,8.12,27.89,9.68,31.69L112,281.62l-18.65-7.49a53.93,53.93,0,0,0,3.32-11.5,87.54,87.54,0,0,0,1-14.24l1.76-98.66c0-6.67,1.15-13.36.27-19.52S97.12,110.4,93.62,102l16,3,16.69,3.59a17.27,17.27,0,0,0,1.21,5.75,22.8,22.8,0,0,0,3.48,5.51L186,149.58"/></g></g></svg>